HIERARCHY
ROOT Hips
{
	OFFSET -0.179506 -22.333345 2.821913
	CHANNELS 6 Xposition Yposition Zposition Zrotation Yrotation Xrotation 
	JOINT LeftUpLeg
	{
		OFFSET 6.951974 -9.140623 -0.681533
		CHANNELS 3 Zrotation Yrotation Xrotation
		JOINT LeftLeg
		{
			OFFSET 3.427654 -37.519855 -0.449580
			CHANNELS 3 Zrotation Yrotation Xrotation
			JOINT LeftFoot
			{
				OFFSET -1.359570 -39.796059 -4.369333
				CHANNELS 3 Zrotation Yrotation Xrotation
				JOINT LeftToe
				{
					OFFSET 2.635814 -5.579078 11.928840
					CHANNELS 3 Zrotation Yrotation Xrotation
					End Site
					{
						OFFSET 0.000000 0.000000 0.000000
					}
				}
			}
		}
	}
	JOINT RightUpLeg
	{
		OFFSET -6.767048 -9.052170 -0.431982
		CHANNELS 3 Zrotation Yrotation Xrotation
		JOINT RightLeg
		{
			OFFSET -3.829005 -38.256897 -0.885003
			CHANNELS 3 Zrotation Yrotation Xrotation
			JOINT RightFoot
			{
				OFFSET 1.577377 -39.841461 -4.231180
				CHANNELS 3 Zrotation Yrotation Xrotation
				JOINT RightToe
				{
					OFFSET -2.537174 -4.814398 12.334795
					CHANNELS 3 Zrotation Yrotation Xrotation
					End Site
					{
						OFFSET 0.000000 0.000000 0.000000
					}
				}
			}
		}
	}
	JOINT Spine
	{
		OFFSET -0.253288 10.896323 -2.669631
		CHANNELS 3 Zrotation Yrotation Xrotation
		JOINT Spine1
		{
			OFFSET 0.548704 13.518043 0.109247
			CHANNELS 3 Zrotation Yrotation Xrotation
			JOINT Spine2
			{
				OFFSET 0.145701 5.292222 2.542457
				CHANNELS 3 Zrotation Yrotation Xrotation
				JOINT Neck
				{
					OFFSET -0.277840 21.387037 -4.285703
					CHANNELS 3 Zrotation Yrotation Xrotation
					JOINT Head
					{
						OFFSET 0.515184 6.496960 5.134897
						CHANNELS 3 Zrotation Yrotation Xrotation
						End Site
						{
							OFFSET 0.000000 0.000000 0.000000
						}
					}
				}
				JOINT LeftShoulder
				{
					OFFSET 7.884473 12.174932 -3.408961
					CHANNELS 3 Zrotation Yrotation Xrotation
					JOINT LeftArm
					{
						OFFSET 9.097692 3.046888 -0.886815
						CHANNELS 3 Zrotation Yrotation Xrotation
						JOINT LeftForeArm
						{
							OFFSET 25.961220 -1.277207 -2.745643
							CHANNELS 3 Zrotation Yrotation Xrotation
							JOINT LeftHand
							{
								OFFSET 24.923361 0.898606 -0.117091
								CHANNELS 3 Zrotation Yrotation Xrotation
								End Site
								{
									OFFSET 0.000000 0.000000 0.000000
								}
							}
						}
					}
				}
				JOINT RightShoulder
				{
					OFFSET -8.175920 11.883285 -3.861528
					CHANNELS 3 Zrotation Yrotation Xrotation
					JOINT RightArm
					{
						OFFSET -9.601238 3.255117 -0.914307
						CHANNELS 3 Zrotation Yrotation Xrotation
						JOINT RightForeArm
						{
							OFFSET -25.374195 -1.332924 -2.140099
							CHANNELS 3 Zrotation Yrotation Xrotation
							JOINT RightHand
							{
								OFFSET -25.529810 0.777228 -0.555919
								CHANNELS 3 Zrotation Yrotation Xrotation
								End Site
								{
									OFFSET 0.000000 0.000000 0.000000
								}
							}
						}
					}
				}
			}
		}
	}
}
MOTION
Frames: 15
Frame Time: 0.033333
144.568161 56.995274 13.704622 88.810787 4.728333 173.874560 18.215714 6.239419 3.966552 -7.224710 -13.402021 16.448512 -7.833295 4.173644 -14.918290 nan nan nan -18.446902 -2.590397 -1.016320 6.051436 10.982389 20.074439 11.016720 7.635393 -17.714767 nan nan nan 0.298329 1.133079 0.692730 -1.975659 -1.401232 3.954018 0.047838 2.472894 0.009274 -5.749268 7.853406 1.526164 4.902191 -8.052449 -36.614640 10.178197 -7.804499 -7.522437 -0.143987 -12.565934 -21.882868 125.418228 -42.026637 -106.899493 28.355368 -28.804045 -11.993380 -10.932844 14.495633 -0.316378 -4.432703 6.311268 -36.034323 -114.077646 54.254246 -96.496410 -22.455511 23.318102 -11.055681 
144.578171 56.998241 13.696438 88.750959 4.707937 173.781958 18.109607 6.183767 4.060879 -7.142828 -13.314040 16.374582 -7.796388 3.990119 -14.583103 nan nan nan -18.581579 -2.735759 -0.923617 6.121169 10.891966 20.154037 10.963819 7.743281 -17.598664 nan nan nan 0.321008 0.970620 0.924355 -2.063378 -1.560121 3.521460 -0.004891 2.460019 0.164736 -5.921474 7.904577 1.747449 5.082561 -7.722744 -36.793857 10.036005 -7.729698 -7.624312 0.155150 -12.261042 -21.760583 125.411867 -42.129263 -106.947409 28.238585 -28.710092 -12.055669 -10.730388 14.588411 -0.379453 -4.573621 6.814370 -36.001778 -114.055641 54.381084 -96.694635 -22.292846 23.317202 -11.028200 
144.569351 57.017826 13.699879 88.748408 4.685649 173.782655 18.101489 6.170024 4.023852 -7.122212 -13.291830 16.453182 -7.767823 3.976156 -14.727349 nan nan nan -18.649394 -2.791767 -0.922144 6.205010 10.797134 20.197258 11.026210 7.811738 -17.358285 nan nan nan 0.351666 0.923861 0.949631 -2.052332 -1.597852 3.385866 -0.018373 2.454823 0.245340 -6.003827 7.859077 1.860795 5.069698 -7.672882 -36.847287 10.019043 -7.660204 -7.613644 0.086254 -12.179700 -21.695884 125.447755 -42.164336 -106.953329 28.112874 -28.644515 -12.087378 -10.718104 14.581254 -0.399970 -4.644348 6.944408 -36.046978 -114.009035 54.457190 -96.638226 -22.167797 23.294420 -10.907276 
144.568756 57.022541 13.701411 88.754244 4.707026 173.778046 18.122710 6.169195 4.037427 -7.119906 -13.313541 16.479048 -7.788445 3.942900 -14.828411 nan nan nan -18.600239 -2.737178 -0.902925 6.144900 10.905142 20.157058 10.998049 7.856388 -17.243403 nan nan nan 0.361424 0.905878 0.992840 -2.033351 -1.601701 3.329514 -0.010882 2.452897 0.253740 -6.017671 7.818963 1.985250 5.052350 -7.681304 -36.908853 9.994945 -7.606832 -7.603707 0.018507 -12.183591 -21.669553 125.448232 -42.130449 -106.950444 27.958009 -28.588064 -12.093326 -10.729904 14.557046 -0.413064 -4.681365 7.045112 -36.083063 -113.968933 54.486067 -96.517808 -22.039265 23.253086 -10.792094 
144.568863 57.045086 13.639887 88.114219 4.900156 174.242065 17.469830 5.371611 3.982440 -6.544211 -10.733902 15.666499 -9.119009 2.180580 -13.811887 nan nan nan -19.518105 -1.570751 -1.243490 5.684062 8.495282 19.905249 12.590623 10.328422 -16.938751 nan nan nan 0.163403 1.010003 0.917986 -1.752709 -1.616138 3.355905 -0.996102 1.368167 -2.082767 -5.240196 10.090425 5.681711 5.697075 -8.866914 -37.873236 12.528227 -4.626408 -7.555641 -4.992031 -14.172726 -18.736637 124.775301 -41.513194 -108.529471 -1.361327 -28.418766 -6.913750 -12.628895 12.881069 -3.766690 1.316629 12.521263 -31.978752 -117.036217 49.561501 -105.431797 1.096547 24.232736 -16.520537 
144.643433 57.220192 13.642161 88.206346 4.795910 174.174819 17.506863 4.947876 4.121640 -6.293181 -9.998265 15.449316 -10.071687 1.625614 -13.459488 nan nan nan -19.531919 -1.226203 -0.950126 5.211003 7.157244 19.694948 14.187923 11.678657 -16.407083 nan nan nan -0.582899 2.025086 0.125455 -0.751981 -0.862792 3.372514 0.024450 1.192169 -1.019341 -5.531417 9.812431 8.509405 5.184257 -10.637159 -40.486373 14.926248 -3.797047 -7.221068 -12.344520 -17.883681 -17.540064 125.930163 -40.644226 -108.914773 -5.413453 -28.759794 -3.200037 -14.574822 11.363260 -4.156308 3.326910 12.566861 -31.174912 -118.086651 48.852793 -105.704489 4.068505 24.706662 -15.189699 
144.592438 57.286110 13.656064 88.046457 4.869230 174.184686 17.405522 4.946413 4.043776 -6.263945 -9.594738 15.674197 -10.046276 1.206334 -13.390615 nan nan nan -19.756371 -1.230146 -1.043519 5.164010 6.995622 19.949168 14.253300 11.772972 -16.614410 nan nan nan -0.557091 1.785575 0.579064 -0.911415 -0.912049 2.908692 -0.298644 1.047122 -0.874771 -5.210450 10.292504 7.880490 5.015431 -10.658291 -40.038891 15.524163 -2.546530 -6.905500 -12.863299 -18.281103 -17.488868 126.373906 -40.341995 -108.913747 -5.869686 -28.472122 -2.976048 -14.655866 10.708322 -3.933811 4.196485 14.127364 -30.918931 -119.137907 48.282624 -106.183852 4.101131 24.175455 -15.185540 
144.569321 57.330143 13.660020 87.991833 4.871946 174.253330 17.366869 4.967379 3.946909 -6.255832 -9.563951 15.797843 -10.060299 1.046129 -13.360119 nan nan nan -19.841389 -1.215889 -1.102796 5.164856 7.025526 20.016730 14.314591 11.676910 -16.649589 nan nan nan -0.545804 1.608285 0.761765 -1.022150 -0.875259 2.504493 -0.569516 1.076685 -0.441273 -4.934286 10.736055 6.784048 5.160766 -10.679011 -39.602627 16.012660 -1.712545 -6.931498 -13.134480 -18.872502 -17.390440 126.633986 -40.284218 -108.491138 -5.658120 -28.290249 -3.471717 -14.548186 10.012659 -4.012486 4.565796 14.786466 -30.769192 -120.040301 48.062133 -106.055051 3.938005 23.701929 -15.510481 
144.542908 57.369698 13.664200 87.986029 4.861503 174.312567 17.315841 4.935853 3.897011 -6.253137 -9.620176 15.813787 -9.933444 1.165443 -13.369698 nan nan nan -19.863362 -1.165965 -1.129582 5.145314 7.011569 20.034354 14.402052 11.625056 -16.602670 nan nan nan -0.582546 1.540790 0.806718 -1.018313 -0.818047 2.308681 -0.703129 1.136831 -0.148224 -4.751017 10.975820 6.225307 5.236668 -10.717318 -39.372010 16.351881 -1.168282 -6.996865 -13.452155 -19.439047 -17.226283 126.770210 -40.324082 -107.961877 -5.272795 -28.176111 -4.032091 -14.508139 9.495927 -4.085021 4.925928 15.274465 -30.602096 -120.704628 47.830177 -105.862307 3.598208 23.405109 -15.281821 
144.586517 57.439644 13.698236 87.611658 4.925084 174.337237 16.824584 4.668403 3.976902 -6.130543 -9.319608 15.645981 -10.566896 1.301562 -13.264982 nan nan nan -20.277703 -0.876866 -1.222103 4.913495 6.525295 20.015759 15.710266 12.292150 -16.366145 nan nan nan -0.501354 0.989358 1.349691 -1.242703 -0.954177 1.432602 -1.291843 0.875946 0.174239 -5.080216 11.487242 6.109329 5.607165 -10.422139 -39.730627 16.314755 1.100521 -7.726042 -13.891460 -20.294832 -15.940366 126.627003 -40.325454 -108.857012 -6.102983 -28.159230 -2.853400 -14.613005 7.672842 -4.598514 6.108195 18.441151 -28.944255 -121.701477 47.851863 -107.778759 3.143052 22.944958 -12.450804 
144.553772 57.497158 13.705747 87.560229 4.920573 174.278180 16.821870 4.725464 4.017234 -6.151539 -9.273155 15.721956 -10.589041 1.207204 -13.340219 nan nan nan -20.389655 -0.921358 -1.179306 4.892272 6.392888 20.064897 15.720971 12.500365 -16.371214 nan nan nan -0.563099 0.973847 1.647584 -1.201315 -0.967677 1.152379 -1.248715 0.781913 0.023255 -4.977301 11.210709 6.902033 5.355901 -10.286078 -39.796497 16.250360 1.597615 -7.388900 -14.106057 -20.756699 -15.978914 126.759220 -40.427333 -108.723068 -6.275263 -28.167070 -2.688419 -14.994151 7.252357 -4.185128 6.698753 19.290950 -29.173950 -122.358804 47.883695 -107.911145 2.958434 22.781675 -12.093262 
144.513657 57.533562 13.701578 87.524476 4.914975 174.261153 16.823099 4.742962 3.991256 -6.199888 -9.309900 15.825032 -10.566140 1.155037 -13.394560 nan nan nan -20.482578 -0.979883 -1.167102 4.918765 6.371659 20.119341 15.635510 12.578893 -16.392159 nan nan nan -0.523605 0.905314 1.855365 -1.244607 -0.977971 0.965236 -1.316738 0.743882 -0.063262 -4.853880 11.041022 7.114604 5.094975 -10.171813 -39.586919 16.285409 2.006698 -7.096778 -14.159271 -21.112163 -16.172293 126.866860 -40.502121 -108.482322 -6.209138 -28.149079 -2.728506 -15.250995 6.928273 -3.888827 7.066766 19.859622 -29.490973 -122.911180 47.985983 -108.015895 2.870011 22.647018 -12.280078 
144.491409 57.560555 13.700311 87.547905 4.917561 174.297051 16.880744 4.735047 3.964323 -6.192194 -9.244805 15.857294 -10.617586 0.978381 -13.399977 nan nan nan -20.490689 -0.957525 -1.181539 4.940132 6.316500 20.111267 15.679820 12.640722 -16.401359 nan nan nan -0.493379 0.899655 1.847165 -1.233210 -0.919286 0.872940 -1.318652 0.754892 0.013113 -4.761250 11.043368 7.157119 4.974535 -10.281170 -39.502243 16.431203 2.372031 -7.155787 -14.698459 -21.733349 -16.055040 126.940416 -40.571305 -108.119869 -6.478391 -28.129578 -2.572444 -15.455251 6.568585 -3.821553 7.418024 20.226456 -29.462683 -123.382812 47.985818 -108.088925 2.780726 22.524892 -12.521697 
144.480499 57.589642 13.686971 87.550500 4.922067 174.304239 16.951145 4.754656 4.025091 -6.173394 -9.063523 15.799646 -10.711373 0.694226 -13.394435 nan nan nan -20.528973 -0.911993 -1.136311 4.957207 6.271341 20.039803 15.759630 12.719391 -16.385546 nan nan nan -0.483883 0.888800 1.846496 -1.229548 -0.880065 0.729101 -1.299970 0.749501 0.149745 -4.667940 11.066628 7.261014 4.852602 -10.357526 -39.503732 16.534158 2.737299 -7.262920 -15.226054 -22.260145 -15.891377 127.056374 -40.654718 -107.904188 -6.836986 -28.079354 -2.546296 -15.626538 6.220260 -3.792262 7.766780 20.648081 -29.308664 -123.710925 47.932340 -108.113336 2.753574 22.333336 -12.794624 
144.461639 57.619968 13.683261 87.559694 4.939046 174.274847 16.962935 4.721386 4.068545 -6.138790 -8.966317 15.789859 -10.697621 0.673222 -13.444999 nan nan nan -20.536409 -0.882041 -1.096896 4.923038 6.180065 20.029627 15.735690 12.799178 -16.298005 nan nan nan -0.519224 0.981297 1.860909 -1.189644 -0.791975 0.647707 -1.234441 0.775034 0.269783 -4.470763 10.939971 7.467684 4.740831 -10.466591 -39.562419 16.626795 2.930471 -7.328121 -15.706373 -22.817406 -15.743812 127.111011 -40.766476 -107.671232 -7.064844 -28.107096 -2.608984 -15.817516 5.886320 -3.838274 8.113435 20.793779 -29.155348 -123.991025 47.901915 -108.151824 3.127325 22.232982 -12.991978 
